<svg id="visual" viewBox="0 0 900 600" width="900" height="600" xmlns="http://www.w3.org/2000/svg" xmlns:xlink="http://www.w3.org/1999/xlink" version="1.1"><rect x="0" y="0" width="900" height="600" fill="#001220"></rect><path d="M0 349L21.5 351.3C43 353.7 86 358.3 128.8 373.8C171.7 389.3 214.3 415.7 257.2 422.8C300 430 343 418 385.8 409.7C428.7 401.3 471.3 396.7 514.2 401C557 405.3 600 418.7 642.8 419.3C685.7 420 728.3 408 771.2 409C814 410 857 424 878.5 431L900 438L900 601L878.5 601C857 601 814 601 771.2 601C728.3 601 685.7 601 642.8 601C600 601 557 601 514.2 601C471.3 601 428.7 601 385.8 601C343 601 300 601 257.2 601C214.3 601 171.7 601 128.8 601C86 601 43 601 21.5 601L0 601Z" fill="#fa7268"></path><path d="M0 395L21.5 405.7C43 416.3 86 437.7 128.8 442.5C171.7 447.3 214.3 435.7 257.2 433.7C300 431.7 343 439.3 385.8 441.2C428.7 443 471.3 439 514.2 443.3C557 447.7 600 460.3 642.8 462.7C685.7 465 728.3 457 771.2 456.2C814 455.3 857 461.7 878.5 464.8L900 468L900 601L878.5 601C857 601 814 601 771.2 601C728.3 601 685.7 601 642.8 601C600 601 557 601 514.2 601C471.3 601 428.7 601 385.8 601C343 601 300 601 257.2 601C214.3 601 171.7 601 128.8 601C86 601 43 601 21.5 601L0 601Z" fill="#ef5f67"></path><path d="M0 479L21.5 476.7C43 474.3 86 469.7 128.8 473.5C171.7 477.3 214.3 489.7 257.2 490C300 490.3 343 478.7 385.8 472.8C428.7 467 471.3 467 514.2 464.7C557 462.3 600 457.7 642.8 461.8C685.7 466 728.3 479 771.2 486.3C814 493.7 857 495.3 878.5 496.2L900 497L900 601L878.5 601C857 601 814 601 771.2 601C728.3 601 685.7 601 642.8 601C600 601 557 601 514.2 601C471.3 601 428.7 601 385.8 601C343 601 300 601 257.2 601C214.3 601 171.7 601 128.8 601C86 601 43 601 21.5 601L0 601Z" fill="#e34c67"></path><path d="M0 532L21.5 531.2C43 530.3 86 528.7 128.8 522.3C171.7 516 214.3 505 257.2 497.7C300 490.3 343 486.7 385.8 485.3C428.7 484 471.3 485 514.2 492.3C557 499.7 600 513.3 642.8 516.2C685.7 519 728.3 511 771.2 511.8C814 512.7 857 522.3 878.5 527.2L900 532L900 601L878.5 601C857 601 814 601 771.2 601C728.3 601 685.7 601 642.8 601C600 601 557 601 514.2 601C471.3 601 428.7 601 385.8 601C343 601 300 601 257.2 601C214.3 601 171.7 601 128.8 601C86 601 43 601 21.5 601L0 601Z" fill="#d53867"></path><path d="M0 533L21.5 538.5C43 544 86 555 128.8 556C171.7 557 214.3 548 257.2 545.3C300 542.7 343 546.3 385.8 551.8C428.7 557.3 471.3 564.7 514.2 561.2C557 557.7 600 543.3 642.8 539.5C685.7 535.7 728.3 542.3 771.2 546.7C814 551 857 553 878.5 554L900 555L900 601L878.5 601C857 601 814 601 771.2 601C728.3 601 685.7 601 642.8 601C600 601 557 601 514.2 601C471.3 601 428.7 601 385.8 601C343 601 300 601 257.2 601C214.3 601 171.7 601 128.8 601C86 601 43 601 21.5 601L0 601Z" fill="#c62368"></path></svg>